<svg width="145" height="146" viewBox="0 0 145 146" fill="none" xmlns="http://www.w3.org/2000/svg">
<g clip-path="url(#clip0)">
<path fill-rule="evenodd" clip-rule="evenodd" d="M34.9 23.1C33.8 23.6 32.5 25.1 31.9 27.5C31.3 29.9 31.3 33.2 32.3 37.7C33.3 42.2 35.3 47.8 36.4 52.2C37.5 56.6 37.8 59.8 37.7 62.3C37.6 64.9 37 66.8 36.6 68.6C36.1 70.4 35.8 71.9 35.5 73.7C35.2 75.5 35.1 77.5 34.5 81.3C33.9 85.1 32.9 90.7 31.4 96C29.9 101.3 28 106.2 26.9 108.9C25.8 111.6 25.4 112.1 24 112.2C22.6 112.3 20.2 112 18 112C15.8 112 13.8 112.2 11.4 112.6C8.99999 113 6.29999 113.5 4.59999 114.2C2.89999 114.9 2.29999 115.8 2.29999 117C2.29999 118.2 2.89999 119.8 3.99999 121C5.09999 122.2 6.79999 123 8.69999 123.8C10.7 124.6 13 125.4 14.6 126.2C16.2 127 17.1 127.8 18.1 128.3C19.1 128.8 20.2 129 21.9 129.4C23.6 129.7 26 130.2 28.8 130.4C31.6 130.6 34.8 130.6 37.9 130.4C41 130.2 43.9 129.8 47 129.5C50 129.1 53.1 128.8 55.3 128.6C57.5 128.4 58.7 128.4 60.8 128.6C62.9 128.8 66 129.1 69.5 129.6C73 130.1 77 130.8 80 131.2C83 131.6 85 131.7 87.3 131.6C89.6 131.6 92.2 131.5 94.8 130.9C97.5 130.4 100.3 129.5 102.4 128.2C104.6 127 106.1 125.4 107.4 123.5C108.7 121.6 109.9 119.4 110.9 117C111.9 114.6 112.9 112.1 113.5 109.9C114.1 107.8 114.5 106 113.9 103.4C113.3 100.8 111.8 97.3 107.7 96.3C103.5 95.3 96.7 96.9 87.1 93.4C77.5 89.9 65.2 81.3 58.3 74.7C51.4 68.2 50 63.7 49.9 58.2C49.8 52.7 51.1 46.2 50.8 38.5C50.6 30.8 48.9 21.9 47 19.3C45.1 16.7 43 20.4 41.4 22.2C39.8 24 38.7 23.9 37.7 23.5C37 23.2 36 22.6 34.9 23.1Z" fill="#EC684A"/>
<path fill-rule="evenodd" clip-rule="evenodd" d="M2.99998 118.5C3.59998 118.5 4.89998 119.1 6.39998 119.4C7.89998 119.7 9.69998 119.8 11.2 119.7C12.7 119.7 14 119.5 14.9 119.3C15.9 119.1 16.6 118.7 17.3 118.2C18 117.7 18.8 117 19.4 116C20.1 115 20.7 113.8 21.3 113.1C21.9 112.4 22.6 112.2 23.1 112.2C23.6 112.2 24 112.5 24.2 113C24.3 113.5 24.2 114.2 23.5 115.1C22.9 116 21.7 117.1 20.3 118.7C18.8 120.3 17 122.4 15.7 123.5C14.3 124.6 13.4 124.6 12.2 124.3C10.9 124 9.19998 123.3 7.59998 122.5C5.89998 121.6 4.19998 120.6 3.29998 119.8C2.39998 119 2.39998 118.4 2.99998 118.5ZM35.6 23C34.6 23.3 34.3 24.4 34.1 25.6C33.9 26.9 33.7 28.4 33.7 29.8C33.7 31.3 33.9 32.7 34.5 34.2C35.1 35.8 36 37.5 36.5 38.9C37 40.3 37.2 41.4 37.1 42.7C37 44 36.5 45.5 36.6 48.1C36.7 50.7 37.4 54.3 37.9 57.7C38.3 61.1 38.5 64.3 38.9 66C39.3 67.7 40 68 40.7 67.3C41.5 66.6 42.3 64.9 43.1 63.4C43.9 61.9 44.7 60.7 44.7 59.7C44.7 58.7 44 58 42.9 56.3C41.8 54.7 40.3 52.2 39.8 49.9C39.3 47.7 39.8 45.7 40.2 44C40.6 42.4 41 41.1 41 40.2C41 39.3 40.7 38.8 40.3 37.9C39.8 37 39.2 35.7 38.7 34.5C38.2 33.3 38 32.1 38.1 30.7C38.2 29.3 38.6 27.7 39 26.4C39.3 25.1 39.5 24.2 38.8 23.6C38.2 23 36.6 22.6 35.6 23ZM35.4 78.9L31.7 99.5C32.4 105 36.5 110.1 42.9 111.2C43 111.7 43.2 112.1 43.4 112.6C45.7 118.7 51.6 122.1 56.9 120.3C57.4 120.1 57.9 119.9 58.4 119.7C59.1 119.3 59.7 118.9 60.3 118.4C60.6 119.4 61.1 120.4 61.6 121.3C64.6 126.3 69.8 128.7 74.7 127.1C76.5 126.5 78.1 125.4 79.3 123.9C79.7 123.4 80.1 122.9 80.4 122.3C80.9 122.7 81.5 123 82 123.2C84.7 124.5 87.9 124.9 90.9 123.9C93.7 123 96 121.2 97.5 118.9C97.8 118.4 98.1 117.9 98.3 117.4C98.8 117.4 99.2 117.5 99.7 117.5C100.8 117.5 101.9 117.3 103 117C107 115.8 109.9 112.6 111 108.8C111.1 108.4 111.2 108 111.3 107.6C111.7 107.4 112 107.2 112.3 106.9C116.7 103.8 119.3 97.9 118.8 91.3C118.6 88.2 117.6 85.4 116.2 83C106.2 88 50.7 77.7 35.4 78.9Z" fill="#B94106"/>
<path fill-rule="evenodd" clip-rule="evenodd" d="M80.7 119.3C79.2 119.4 77.7 120.2 76.5 120.8C75.3 121.3 74.3 121.6 73.1 121.4C71.9 121.3 70.4 120.9 68.8 120.1C67.3 119.3 65.8 118.1 64.7 116.9C63.6 115.6 62.8 114.3 62.1 113.8C61.4 113.3 60.6 113.6 59.5 113.8C58.4 114 56.8 114 55.1 113.7C53.5 113.4 51.7 112.7 50.2 111C48.7 109.3 47.3 106.5 45.9 104.9C44.5 103.2 43.1 102.6 41.9 101.3C40.7 100 39.6 98.1 38.9 96.2C38.3 94.3 38.1 92.5 38.2 90.9C38.3 89.3 38.8 88.1 39.9 86C41 83.9 42.7 81.1 42.8 79C43 76.9 41.6 75.4 40.9 73.8C40.2 72.2 40.2 70.5 40.5 68.8C40.7 67.2 41.1 65.7 41.8 64.3C42.5 62.9 43.3 61.6 43.9 60.9C44.4 60.2 44.6 60 44.4 59.4C44.2 58.8 43.6 57.7 42.7 56.6C41.8 55.5 40.7 54.4 40 52.8C39.3 51.2 39.2 49.1 39.6 47C40 44.9 41.1 42.9 41.6 41.6C42.1 40.4 42.1 40 41.8 39.4C41.5 38.9 40.8 38.2 40.2 37.3C39.6 36.3 39 35 38.7 33.3C38.4 31.6 38.3 29.5 38.6 27.7C39 26 39.8 24.6 40.7 23.4C41.6 22.1 42.7 21 43.8 20.1C44.9 19.3 46.1 18.8 47 17.8C47.8 16.8 48.2 15.3 48.9 14.1C49.5 12.9 50.4 11.9 51.5 10.9C52.6 9.89997 54 8.89996 55.4 8.29996C56.8 7.79996 58.2 7.69996 59.4 7.59996C60.6 7.59996 61.7 7.49996 62.5 7.29996C63.3 6.99996 63.9 6.59996 64.9 5.79996C65.9 4.99996 67.3 3.89996 68.7 3.19996C70.1 2.39996 71.6 1.99996 72.8 1.79996C74 1.59996 75.1 1.69996 76.1 1.99996C77.1 2.29996 78 2.89996 78.8 3.09996C79.6 3.29996 80.3 2.99996 81.3 2.69996C82.3 2.39996 83.5 1.99996 84.9 1.79996C86.3 1.59996 87.9 1.59996 89.2 1.79996C90.5 1.99996 91.6 2.39996 92.7 3.09996C93.8 3.89996 94.9 4.99996 95.5 5.79996C96.2 6.59996 96.4 7.09996 97.1 7.19997C97.8 7.29997 99 7.19997 100.2 7.19997C101.5 7.19997 102.9 7.39996 104.1 7.59996C105.3 7.89996 106.3 8.19996 107.4 8.79996C108.5 9.39996 109.6 10.3 110.5 11.3C111.4 12.4 112.1 13.6 112.4 15C112.8 16.4 112.8 17.8 113.1 18.9C113.4 20 114 20.6 114.9 21.7C115.8 22.8 117 24.5 117.6 26C118.2 27.5 118.3 28.9 118.3 30.2C118.2 31.5 118 32.6 117.8 33.9C117.5 35.1 117.2 36.4 116.8 37.4C116.4 38.3 116 38.9 116.1 39.5C116.2 40.1 116.8 40.8 117.4 41.8C118 42.7 118.5 43.9 118.8 45.1C119.1 46.3 119 47.5 118.9 48.7C118.8 49.9 118.8 51.2 118.5 52.2C118.2 53.2 117.6 54 116.9 54.9C116.2 55.8 115.5 56.7 115.5 57.7C115.5 58.7 116.2 59.8 116.9 61.9C117.7 64 118.5 67 118.3 69.4C118.1 71.8 117 73.7 116.3 75.6C115.6 77.6 115.5 79.7 115.7 81.2C115.9 82.8 116.3 83.8 116.8 85.8C117.3 87.8 117.9 90.7 117.7 93.5C117.5 96.3 116.6 98.9 115.4 100.9C114.2 102.9 112.8 104.3 111.8 105.2C110.8 106.1 110.1 106.5 109.7 107.3C109.3 108 109.1 109 108.8 109.9C108.4 110.7 107.9 111.4 107 111.9C106.2 112.5 105.1 112.9 103.9 113.4C102.8 113.9 101.6 114.4 100.5 114.7C99.4 114.9 98.4 114.9 97.5 115.2C96.6 115.5 95.9 116.2 95.2 116.8C94.5 117.4 93.8 117.9 92.6 118.4C91.5 118.9 89.9 119.4 88.6 119.7C87.3 120 86.2 120.2 85 120C83.6 119.8 82.2 119.2 80.7 119.3Z" fill="white"/>
<path fill-rule="evenodd" clip-rule="evenodd" d="M117.2 94.3C117.7 93.6 117.9 94 117.4 95.8C116.9 97.6 115.6 100.8 114.3 102.7C112.9 104.7 111.5 105.5 110.5 106.4C109.6 107.3 109.1 108.4 108.3 109.5C107.5 110.6 106.3 111.7 105.3 112.5C104.3 113.2 103.4 113.6 102.2 113.8C101 114 99.5 114.2 98.3 114.8C97 115.4 95.9 116.3 94.7 117.2C93.5 118.1 92.2 118.8 91 119.3C89.8 119.8 88.6 119.9 87.6 119.9C86.6 119.9 85.7 119.9 84.7 119.6C83.7 119.3 82.7 118.7 81.9 118.5C81.1 118.3 80.7 118.5 79.6 119.1C78.6 119.7 76.9 120.8 75.5 121.3C74.1 121.8 72.8 121.8 71.3 121.3C69.8 120.9 68 120 66.6 119C65.3 118 64.4 117 63.8 116C63.1 115.1 62.7 114.3 61.9 114.1C61.1 113.8 60 114 58.5 114.1C57.1 114.1 55.4 114 54.1 113.7C52.8 113.3 51.9 112.7 51 111.8C50 110.9 49 109.8 48.3 108.8C47.6 107.8 47.2 106.8 46.6 106C46 105.2 45.1 104.5 43.8 103.1C42.5 101.7 40.7 99.6 39.7 97.8C38.7 96 38.6 94.4 38.6 92.5C38.7 90.6 39 88.3 39.4 86.6C39.8 84.9 40.3 83.9 40.8 82.9C41.3 81.9 41.8 80.9 41.4 78.9C41.1 77 39.9 74.2 39.7 71.9C39.4 69.6 40 67.9 40.7 66.3C41.4 64.7 42.2 63.2 43 62C43.8 60.9 44.7 60 44.6 59.3C44.5 58.6 43.5 58 42.7 57.2C41.9 56.4 41.4 55.4 41 53.3C40.6 51.2 40.3 48 40.3 46C40.3 43.9 40.6 43 41 42.2C41.4 41.4 41.8 40.6 41.6 39.8C41.4 39 40.5 38.1 39.8 36.8C39.1 35.5 38.5 33.7 38.4 31.8C38.3 29.9 38.6 28 39.2 26.5C39.8 25 40.6 24 41.4 22.8C42.2 21.6 43 20.3 44.2 19.5C45.4 18.7 47.1 18.5 47.6 18.8C48.1 19.1 47.6 19.9 47 20.8C46.5 21.7 46.1 22.7 45.7 23.6C45.4 24.6 45.2 25.5 45 26.4C44.9 27.3 44.8 28.2 44.9 29.1C44.9 30 45.1 30.9 45.4 31.8C45.7 32.7 46.2 33.7 46.8 34.7C47.4 35.7 48.1 36.7 48.4 37.2C48.7 37.7 48.7 37.7 48.5 38C48.2 38.3 47.6 38.9 47.2 39.5C46.8 40.1 46.4 40.7 46.2 41.5C46 42.3 45.9 43.2 45.9 44.1C45.9 45 46 45.8 46.3 46.5C46.5 47.2 46.9 47.8 47.2 48.3C47.6 48.8 47.9 49.2 48.1 49.4C48.3 49.6 48.3 49.6 48.1 50.1C47.9 50.6 47.5 51.5 47.3 52.6C47.1 53.7 47.1 54.8 47.2 55.7C47.3 56.6 47.5 57.3 47.9 57.8C48.2 58.3 48.6 58.8 49.1 58.9C49.5 59 50 58.8 50.8 58.6C51.6 58.4 52.9 58.1 53.9 58C54.9 57.9 55.6 58 56.2 58C56.8 58.1 57.3 58.2 57.7 58.4C58.1 58.6 58.5 58.9 58.7 59C58.9 59.1 58.9 59.1 58.9 59.1C58.9 59.1 58.9 59.1 58.6 59C58.4 58.9 57.9 58.6 57.4 58.5C57 58.4 56.6 58.4 56.3 58.5C55.9 58.5 55.5 58.6 55.2 58.7C54.8 58.8 54.4 59.1 54.1 59.4C53.8 59.7 53.4 60 53.3 60.2C53.1 60.4 53.1 60.4 53.3 60.4C53.5 60.4 53.9 60.4 54.2 60.5C54.5 60.6 54.8 60.7 55.2 61C55.6 61.2 56.1 61.5 56.6 61.9C57 62.3 57.4 62.7 57.7 63.2C58 63.7 58.3 64.2 58.5 64.8C58.7 65.4 58.8 66 58.8 66.7C58.8 67.3 58.7 68 58.4 68.6C58.1 69.2 57.7 69.8 57.2 70.3C56.7 70.8 56.1 71.3 55.5 71.6C54.9 71.9 54.2 72.1 53.5 72.4C52.8 72.7 52.1 73.1 52.2 73.3C52.3 73.6 53.1 73.7 53.3 75.8C53.5 77.9 53.1 82 52.8 84.6C52.5 87.2 52.3 88.4 52.2 89.4C52.2 90.5 52.3 91.4 52.6 92.3C52.9 93.2 53.4 94 53.9 94.7C54.4 95.4 55.1 96 55.6 96.5C56.2 97 56.7 97.4 57.3 97.6C57.8 97.9 58.3 98 58.5 98C58.7 98.1 58.7 98.1 58.8 98.6C58.9 99.2 59 100.3 59.3 101.4C59.6 102.5 60.1 103.5 60.8 104.5C61.5 105.5 62.4 106.3 63.4 107C64.4 107.7 65.6 108.2 66.8 108.4C67.9 108.6 68.9 108.6 69.8 108.4C70.6 108.3 71.3 108.1 71.6 107.9C71.9 107.8 71.9 107.8 72 108C72.1 108.2 72.4 108.5 72.9 108.9C73.4 109.3 74.2 109.9 75.1 110.3C76 110.8 77.1 111.2 78.1 111.4C79.1 111.6 80.1 111.6 81.1 111.3C82.1 111.1 83.2 110.6 84 110.1C84.9 109.6 85.5 109 85.9 108.7C86.2 108.4 86.3 108.4 86.5 108.6C86.7 108.8 87.2 109.1 88.1 109.6C89 110.1 90.2 110.7 91.2 111C92.2 111.3 92.9 111.4 93.5 111.4C94.2 111.4 94.8 111.3 95.5 111.1C96.2 110.9 96.9 110.6 97.3 110.4C97.7 110.2 97.7 110.2 98.2 110.4C98.8 110.5 99.9 110.8 100.9 110.9C101.9 111 102.7 110.8 103.5 110.5C104.3 110.2 104.9 109.8 105.5 109.2C106.1 108.6 106.7 107.9 107.1 106.9C107.5 105.9 107.8 104.8 108 104.2C108.1 103.6 108.1 103.6 108.5 103.5C108.8 103.4 109.5 103.1 110.3 102.6C111.1 102.1 112.1 101.2 112.9 100.3C113.7 99.4 114.3 98.6 115.1 97.3C115.8 96.8 116.6 95 117.2 94.3ZM63.9 43.3C62.9 43.9 61.8 44.2 60.6 44.2C56.6 44.2 53.3 40.5 53.3 35.8C53.3 34.6 53.5 33.5 53.9 32.5C52.9 33.9 52.3 35.7 52.3 37.6C52.3 41.9 55.4 45.5 59.2 45.5C61 45.5 62.7 44.7 63.9 43.3ZM60.9 29.4C60 29.8 59 29.9 58 29.8C54.5 29.3 52.1 25.8 52.7 21.8C52.8 20.8 53.1 19.8 53.6 19C52.6 20.1 51.8 21.6 51.6 23.2C51.1 27 53.4 30.3 56.6 30.8C58.1 30.9 59.7 30.4 60.9 29.4ZM73.2 49.3C78.2 54.3 82.6 54.5 86.5 48.3C85.3 49.1 84 49.9 82.9 50.4C81.7 50.8 80.7 50.9 79.8 50.9C79 50.9 78.4 50.9 78 50.9C77.6 50.9 77.4 51 77.1 51C76.8 51 76.4 50.9 75.7 50.6C75.1 50.3 74.1 49.8 73.2 49.3ZM98.6 47.1C103.8 52.2 108.5 52.5 112.6 45.9C111.5 46.6 110.5 47.3 109.2 47.9C107.9 48.5 106.4 48.9 105.4 49.2C104.3 49.4 103.7 49.4 103.2 49.3C102.7 49.2 102.2 48.9 101.7 48.7C101.2 48.4 100.7 48.2 100.2 47.9C99.7 47.6 99.2 47.4 98.9 47.3C98.6 47.1 98.6 47.1 98.6 47.1Z" fill="#C5C5C6"/>
<path fill-rule="evenodd" clip-rule="evenodd" d="M88.9 52.2C89.1 52.6 89.5 53.2 90 53.7C90.5 54.2 91.1 54.6 91.7 54.8C92.3 55.1 92.9 55.2 93.5 55.2C94.1 55.2 94.7 55.1 95.2 55C95.7 54.8 96.3 54.6 96.8 54.2C97.3 53.8 97.9 53.3 98.3 52.8C98.7 52.3 99 51.8 99.1 51.5C99.2 51.1 99.2 50.9 99.1 50.6C99 50.4 98.9 50.2 98.6 50.1C98.4 50 98.1 49.9 97.9 50C97.7 50 97.5 50.1 97.3 50.4C97.1 50.6 96.9 51 96.6 51.4C96.3 51.8 96 52.1 95.6 52.4C95.2 52.7 94.7 52.9 94.3 53C93.9 53.1 93.5 53.1 93.1 53C92.7 52.9 92.3 52.7 91.9 52.4C91.5 52.1 91.2 51.7 90.9 51.4C90.6 51.1 90.5 50.9 90.2 50.9C89.9 50.8 89.6 50.9 89.4 51C89.1 51.1 89 51.3 88.9 51.5C88.8 51.5 88.7 51.8 88.9 52.2Z" fill="#1A1A18"/>
<path fill-rule="evenodd" clip-rule="evenodd" d="M83.5 49.3C84.9 47.5 85.8 44.6 85.8 41.4C85.8 35.8 83.1 31.3 79.7 31.3C76.3 31.3 73.6 35.8 73.6 41.4C73.6 45 74.7 48.1 76.4 49.9C74.9 49.7 73.5 49.2 72.4 48.5C74.1 50.6 76.7 52 79.5 51.9C82.9 51.8 85.8 49.8 87.4 46.9C86.5 48 85.1 48.8 83.5 49.3ZM82.2 36.6C83.3 36.6 84.2 39 84.2 42C84.2 45 83.3 47.4 82.2 47.4C81.1 47.4 80.2 45 80.2 42C80.1 39 81.1 36.6 82.2 36.6Z" fill="#1A1A18"/>
<path fill-rule="evenodd" clip-rule="evenodd" d="M109 47.5C110.4 45.7 111.3 42.9 111.3 39.8C111.3 34.4 108.6 30 105.4 30C102.1 30 99.5 34.4 99.5 39.8C99.5 43.3 100.6 46.4 102.2 48.1C100.7 47.9 99.4 47.4 98.3 46.8C100 48.9 102.5 50.2 105.2 50.2C108.5 50.1 111.3 48.2 112.9 45.3C112 46.1 110.7 46.9 109 47.5ZM107.8 35C108.9 35 109.8 37.3 109.8 40.2C109.8 43.1 108.9 45.4 107.8 45.4C106.7 45.4 105.8 43.1 105.8 40.2C105.8 37.3 106.7 35 107.8 35Z" fill="#1A1A18"/>
<path fill-rule="evenodd" clip-rule="evenodd" d="M74.5 103.2C73.1 102.8 72.2 102.6 71.8 102.4C71.3 102.3 71.3 102.3 71.9 102.1C72.4 102 73.5 101.7 74.6 101.4C75.7 101 76.8 100.6 77.6 100.1C78.5 99.6 79.2 99 79.6 98.4C80.1 97.8 80.4 97.3 80.5 97C80.6 96.7 80.6 96.7 80.6 96.7C80.6 96.7 80.6 96.7 80.4 97.2C80.2 97.7 79.9 98.8 79.4 99.6C78.9 100.4 78.3 101.1 78.1 101.4C77.8 101.7 77.8 101.7 78 101.8C78.2 101.9 78.5 102 79.2 102.2C79.8 102.4 80.7 102.6 81.6 102.7C82.4 102.8 83.2 102.7 84 102.5C84.8 102.3 85.6 102 86.3 101.6C87 101.2 87.5 100.7 87.8 100.4C88.1 100.1 88.1 100.1 87.9 100.4C87.8 100.7 87.5 101.2 87.1 101.7C86.7 102.2 86.1 102.8 85.4 103.2C84.7 103.6 84 103.9 83.1 104C82.1 104.2 80.9 104.2 79.3 104C77.7 104 75.9 103.5 74.5 103.2Z" fill="#C5C5C6"/>
<path fill-rule="evenodd" clip-rule="evenodd" d="M44.5 57.9V60.7C43.3 60.8 42.2 61 41 61C39.8 61 38.5 60.8 37.3 60.7V57.9C38.5 58.1 39.8 58.2 41 58.2C42.2 58.2 43.3 58 44.5 57.9Z" fill="#EC6B35"/>
<path fill-rule="evenodd" clip-rule="evenodd" d="M41 99.8L41.3 102.7C39.7 102.5 38.2 102.3 36.6 102C35 101.6 33.4 101 31.8 100.4L31.5 97.5C33.1 98.1 34.7 98.7 36.3 99.1C37.9 99.5 39.5 99.6 41 99.8Z" fill="#EC6B35"/>
<path fill-rule="evenodd" clip-rule="evenodd" d="M37.9 90V92.8C37.6 92.7 37.4 92.7 37.1 92.6C36 92.3 34.9 91.9 33.7 91.5L34.3 88.9C35.1 89.2 35.9 89.4 36.7 89.6C37.1 89.8 37.5 89.9 37.9 90Z" fill="#EC6B35"/>
<path fill-rule="evenodd" clip-rule="evenodd" d="M65.3 117L63.3 114.1C62.4 114 61.5 114 60.6 113.9C57.4 113.7 54.1 113.5 50 112.8C45.9 112.1 40.9 111 37.1 110.1C33.3 109.2 30.8 108.5 28.2 107.7L27.3 110.4C29.9 111.1 32.4 111.9 36.2 112.8C40 113.7 45 114.8 49.1 115.5C53.2 116.2 56.4 116.4 59.7 116.6C61.6 116.8 63.5 116.9 65.3 117Z" fill="#F9C188"/>
<path fill-rule="evenodd" clip-rule="evenodd" d="M97.2 114.8L95.9 117.9C97.3 117.7 98.7 117.4 100.3 117C104.4 116.1 109.3 114.7 113.1 113.6L112 111C108.3 112.1 103.3 113.5 99.2 114.4C98.5 114.6 97.9 114.7 97.2 114.8Z" fill="#F9C188"/>
<path fill-rule="evenodd" clip-rule="evenodd" d="M23.7 115.1L21.4 117.8C20.5 117.9 19.7 118 18.9 118.1C17.2 118.3 15.5 118.7 14.2 119C12.8 119.3 11.8 119.7 10.7 120.2C9.6 120.7 8.39999 121.2 7.49999 121.7C7.29999 121.8 7.09999 121.9 6.99999 122L4.89999 120.6C5.49999 120.2 6.09999 119.7 6.99999 119.2C7.89999 118.7 9.1 118.1 10.2 117.7C11.3 117.2 12.4 116.9 13.7 116.5C15.1 116.2 16.7 115.8 18.4 115.6C20 115.4 21.9 115.2 23.7 115.1Z" fill="#F9C188"/>
<path fill-rule="evenodd" clip-rule="evenodd" d="M107.7 123.9L110.4 121.3C106.3 122.1 102.1 122.8 97.2 123.3C92.3 123.8 86.5 124 79.2 124.1C71.9 124.2 63 124.1 54.8 123.7C46.6 123.3 39.2 122.5 33.7 121.8C28.1 121 24.4 120.3 20.7 119.5L18 122.1C21.7 122.9 25.4 123.6 31 124.4C36.6 125.2 44 125.9 52.1 126.3C60.3 126.7 69.2 126.8 76.5 126.7C83.8 126.6 89.6 126.4 94.5 125.9C99.5 125.4 103.6 124.7 107.7 123.9Z" fill="#F9C188"/>
<path fill-rule="evenodd" clip-rule="evenodd" d="M19.9 115.4C21.2 115.3 22.5 115.1 23.7 115L21.4 117.7C20.5 117.8 19.7 117.9 18.9 118C18.3 118.1 17.7 118.2 17.1 118.3C17.2 118.2 17.3 118.2 17.4 118.1C18.1 117.6 18.9 116.9 19.5 115.9C19.6 115.8 19.7 115.6 19.9 115.4ZM6.49998 119.4C7.99998 119.7 9.69998 119.7 11.2 119.7C11.4 119.7 11.6 119.7 11.7 119.7C11.3 119.8 11 120 10.5 120.2C9.39998 120.7 8.19998 121.2 7.29998 121.7C7.09998 121.8 6.89998 121.9 6.79998 122L4.69998 120.6C5.29998 120.2 5.79998 119.8 6.49998 119.4ZM36.9 44C37.1 44 37.3 44 37.5 44C38.7 44 39.9 43.9 41 43.7V41C39.8 41.1 38.7 41.3 37.5 41.3C37.4 41.3 37.2 41.3 37.1 41.3C37.2 41.8 37.2 42.3 37.1 42.8C37.1 43.1 37 43.6 36.9 44ZM34 32.7C33.8 31.7 33.7 30.9 33.7 29.9C33.9 29.9 34.1 29.9 34.4 29.9C35.6 29.9 36.8 29.8 37.9 29.6V32.4C36.7 32.5 35.6 32.7 34.4 32.7C34.3 32.7 34.2 32.7 34 32.7ZM44.3 114.7C46 115 47.6 115.3 49.1 115.6C53.2 116.3 56.4 116.5 59.7 116.7C61.6 116.8 63.4 116.9 65.3 117L63.3 114.1C62.4 114 61.5 114 60.6 113.9C57.4 113.7 54.1 113.5 50 112.8C47.8 112.4 45.3 111.9 42.9 111.4C43 111.8 43.1 112.2 43.3 112.6C43.6 113.4 44 114.1 44.3 114.7ZM109.8 111.7C106.5 112.7 102.6 113.7 99.3 114.5C98.6 114.7 97.9 114.8 97.3 114.9L96 118C97.4 117.8 98.8 117.5 100.4 117.1C102.1 116.7 104 116.2 105.9 115.7C107.5 114.7 108.8 113.3 109.8 111.7ZM91.4 123.8C89.2 123.9 86.8 124 84.3 124.1C86.4 124.7 88.7 124.7 90.9 124C91.1 123.9 91.3 123.8 91.4 123.8ZM75.4 126.7C76.8 126.1 78 125.2 79 124.1C74.3 124.1 69 124.1 63.7 124C64.9 125.2 66.2 126.1 67.7 126.7C70.3 126.8 72.9 126.8 75.4 126.7Z" fill="#EC6B35"/>
<path fill-rule="evenodd" clip-rule="evenodd" d="M15.6 121.8C14.5 122.9 14.3 123.2 14.2 123.4C14.1 123.6 14.1 123.8 14.1 123.9C14.1 124 14.1 124 13.9 123.9C13.7 123.8 13.4 123.6 12.8 123.4C12.2 123.2 11.2 122.9 10.3 122.6C9.29999 122.3 8.29999 121.9 7.59999 121.5C6.79999 121.2 6.29999 120.8 5.79999 120.4C5.29999 120 4.79999 119.4 4.29999 119C3.89999 118.5 3.59999 118.2 3.49999 117.8C3.39999 117.5 3.39999 117.1 3.49999 116.9C3.59999 116.7 3.79999 116.5 4.09999 116.3C4.39999 116.1 4.79999 115.9 5.39999 115.7C5.99999 115.5 6.59999 115.3 7.59999 115C8.49999 114.8 9.69999 114.5 10.9 114.3C12.1 114.1 13.4 113.9 14.9 113.8C16.4 113.7 18.2 113.6 19.6 113.6C21.1 113.6 22.3 113.5 22.9 113.5C23.5 113.5 23.5 113.5 23.1 114C22.7 114.5 21.9 115.5 20.4 117C18.8 118.7 16.7 120.7 15.6 121.8ZM120.5 47.7C126.8 35.8 133.2 24 136.3 18.1C139.5 12.2 139.5 12.2 140 12.1C140.5 12 141.5 11.8 142.4 11.5C143.3 11.2 144.2 10.8 144.7 10.3C145.2 9.79999 145.5 9.19999 145.4 8.39999C145.4 7.59999 145 6.69999 144.6 5.89999C144.1 5.09999 143.6 4.49999 142.9 3.99999C142.2 3.49999 141.3 3.09999 140.5 3.09999C139.7 3.09999 138.9 3.39999 138.5 3.59999C138.1 3.79999 138.1 3.79999 138 3.59999C137.9 3.39999 137.6 3.09999 137.3 2.89999C137 2.69999 136.6 2.59999 136.2 2.79999C135.9 2.99999 135.6 3.29999 135.6 3.89999C135.6 4.49999 135.7 5.19999 135.9 5.99999C136.1 6.79999 136.4 7.79999 136.6 8.19999C136.8 8.69999 136.8 8.69999 133.8 14.3C130.8 20 124.9 31.3 119 42.6C118.4 41.4 117.6 40.3 116.6 39.5C118.2 37.1 119.4 33.9 119.4 30.6C119.4 25.6 117.2 21.2 113.9 18.7C114.2 14.9 112.5 11.2 108.7 8.79999C105.5 6.69999 101.3 5.89999 97.2 6.29999C94.8 2.59999 90.8 0.299988 86.3 0.299988C83.6 0.299988 81.2 1.09999 79.1 2.59999C77.3 1.29999 75.1 0.599989 72.8 0.599989C68.7 0.599989 65 2.89999 62.8 6.49999C57.6 5.29999 51.7 7.89999 48.4 13.2C47.6 14.5 46.9 15.9 46.5 17.3C43.8 18.3 41.4 20.3 39.6 22.9C39.1 22.8 38.6 22.6 37.9 22.4C37.2 22.1 36.3 21.7 35.7 21.4C35 21.1 34.6 21.1 34.2 21.1C33.8 21.2 33.5 21.4 33.3 21.7C33.1 22 33 22.3 32.8 22.6C32.6 23 32.3 23.4 32 23.8C31.7 24.3 31.3 24.8 31 25.4C30.7 26 30.4 26.6 30.2 27C30 27.5 29.8 27.8 29.7 28.5C29.5 29.1 29.4 30.1 29.4 31.5C29.4 32.9 29.7 34.8 30 36.2C30.3 37.6 30.6 38.5 31.1 39.8C31.6 41.2 32.3 43 33 45.1C33.7 47.2 34.4 49.5 34.8 51.2C35.2 52.8 35.4 53.7 35.5 54.9C35.7 56.1 35.8 57.5 35.9 59C36 60.4 35.9 61.8 35.8 62.6C35.7 63.4 35.6 63.7 35.5 63.8C35.4 63.9 35.4 63.9 35.3 64C35.1 64.1 34.7 64.3 34.4 64.6C34.1 64.9 33.9 65.3 33.7 66.9C33.5 68.6 33.4 71.5 33.2 73.3C33.1 75.1 33 75.9 33.1 76.5C33.2 77.1 33.4 77.6 33.6 77.9C33.7 78.2 33.7 78.3 33.5 79.5C33.3 80.7 33.1 83 32.5 86.4C31.9 89.8 31.1 94.4 29.9 98.7C28.6 103 27 107 26.1 109C25.3 111 25.3 111 24.8 111C24.3 111 23.4 110.9 21.9 110.9C20.4 110.9 18.2 111 16 111.2C13.8 111.4 11.6 111.7 9.59999 112.1C7.59999 112.5 5.79999 112.9 4.39999 113.3C2.99999 113.8 2.09999 114.3 1.39999 114.9C0.699988 115.6 0.299988 116.3 0.299988 117.2C0.299988 117.3 0.299988 117.3 0.299988 117.4C0.299988 118.3 0.599989 119.2 1.09999 120.1C1.59999 121 2.29999 121.7 3.09999 122.4C3.89999 123.1 4.89999 123.8 5.99999 124.3C7.09999 124.9 8.39999 125.3 9.39999 125.6C10.5 125.9 11.3 126.1 12 126.4C12.7 126.6 13.2 126.8 13.6 127.3C14.1 127.7 14.5 128.3 15.3 128.9C16.1 129.5 17.5 129.9 18.9 130.3C20.3 130.7 21.8 131 23.6 131.2C25.4 131.5 27.6 131.7 31.4 131.8C35.2 131.9 40.7 131.8 44.4 131.6C48.1 131.4 50 131 51.8 130.7C53.6 130.4 55.4 130.2 56.8 130C58.2 129.8 59.4 129.7 60.7 129.8C62 129.8 63.6 130 65.2 130.4C66.9 130.8 68.7 131.3 70.2 131.6C71.7 131.9 73 132.1 73.6 132.1C74.2 132.2 74.2 132.2 74 133.7C73.8 135.3 73.5 138.4 73.3 140.2C73.1 142 73.1 142.5 73.3 143C73.5 143.5 73.9 144 74.4 144.4C74.9 144.8 75.5 145.2 76.1 145.5C76.7 145.8 77.4 145.9 77.9 145.9C78.4 145.9 78.9 145.7 79.2 145.4C79.5 145.2 79.7 144.8 79.8 144.5C79.9 144.2 79.9 143.8 79.8 143.4C79.7 143 79.5 142.7 79.2 142.4C78.9 142.1 78.7 141.8 78.3 141.6C78 141.4 77.7 141.2 77.2 141.1C76.8 141 76.2 140.9 76 140.8C75.7 140.7 75.7 140.7 75.8 140.5C75.9 140.2 76 139.7 76.1 139.1C76.2 138.4 76.3 137.7 76.3 136.9C76.4 136.1 76.4 135.4 76.4 134.7C76.4 134 76.5 133.2 76.5 132.9C76.5 132.5 76.5 132.5 76.8 132.6C77.1 132.6 77.6 132.7 78.4 132.8C79.2 132.9 80.3 132.9 81.1 133C81.9 133.1 82.4 133.1 82.9 133.1C83.4 133.1 83.8 133.1 84 133C84.2 133 84.2 133 84.2 133.3C84.2 133.6 84.1 134.3 84 134.9C83.9 135.5 83.8 136 83.7 136.6C83.6 137.2 83.5 137.7 83.3 138.3C83.2 138.8 83 139.4 82.9 139.8C82.8 140.2 82.7 140.4 82.8 140.7C82.8 141 82.9 141.4 83.2 141.7C83.5 142 83.9 142.4 84.5 142.7C85.1 143.1 85.8 143.4 86.5 143.7C87.1 144 87.6 144.1 88.1 144.2C88.6 144.3 89 144.3 89.4 144.2C89.8 144.1 90.2 143.9 90.4 143.6C90.7 143.3 90.8 143.1 90.9 142.8C90.9 142.5 90.9 142.2 90.7 141.8C90.6 141.4 90.4 141 90 140.7C89.7 140.4 89.2 140.1 88.5 139.8C87.9 139.6 87.1 139.5 86.7 139.4C86.3 139.3 86.1 139.3 86 139.3C85.9 139.3 85.9 139.3 86 138.9C86.1 138.6 86.2 137.9 86.4 137.1C86.5 136.3 86.6 135.5 86.7 134.8C86.8 134.1 86.9 133.7 86.9 133.4C86.9 133.1 86.9 133.1 87.5 133.1C88.1 133.1 89.2 133 90.2 132.9C91.2 132.8 92.1 132.7 92.9 132.5C93.8 132.4 94.6 132.2 95.7 132C96.7 131.8 97.9 131.5 98.9 131.2C99.9 130.9 100.8 130.5 101.7 130C102.6 129.5 103.5 129 104.3 128.4C105.1 127.8 105.9 127.2 106.7 126.5C107.5 125.8 108.2 125.2 109 124.1C109.8 123 110.8 121.4 111.5 120.1C112.2 118.8 112.6 117.6 112.9 116.5C113.3 115.4 113.7 114.3 114 113C114.4 111.7 114.7 110.1 114.9 108.7C115.1 107.3 115.3 106.2 115.4 105.3C115.5 104.4 115.6 103.7 115.7 103C117.8 99.9 119 96 119 91.7C119 88.8 118.2 85.5 117.2 83C117.4 82.9 117.5 82.9 117.6 82.8C118.6 82.4 118.8 81.9 119.1 80.7C119.4 79.5 119.8 77.5 120.1 75.6C120.3 73.8 120.3 72.1 120.3 70.9C120.3 70 120.3 68.9 119.6 68.2C119.6 68 119.6 67.8 119.6 67.6C119.6 63.5 118 60 115.5 57.8C118.2 55.9 120 52.4 120 48.3C120.5 48.1 120.5 47.9 120.5 47.7ZM86.8 121.4C88 121.5 89.2 121.4 90.4 121.1C93.5 120.4 96.1 118.6 98 116.2C99.2 116.3 100.5 116.2 101.7 115.9C106.2 114.9 109.7 111.7 111.2 107.6C111.8 107.3 112.3 106.9 112.9 106.4C112.3 108.6 111.8 110.8 111.2 112.9C110.7 115 110.1 116.9 109.3 118.7C108.4 120.5 107.2 122.1 106 123.4C104.8 124.7 103.6 125.6 102.2 126.4C100.8 127.2 99.2 127.9 97.5 128.4C95.8 129 93.9 129.4 92.4 129.7C90.9 130 89.9 130 89.1 130.1C88.3 130.1 87.9 130.2 87.7 130.2C87.5 130.2 87.5 130.2 87.5 129.9C87.5 129.6 87.5 129 87.5 128.3C87.5 127.6 87.5 126.8 87.5 126C87.5 125.3 87.4 124.7 87.3 123.9C87.1 123.2 86.9 122.3 86.8 121.4ZM83.9 121C84.1 122 84.3 122.9 84.4 123.8C84.6 124.7 84.7 125.5 84.7 126.6C84.7 127.7 84.7 129 84.7 129.7C84.7 130.4 84.7 130.4 84 130.4C83.3 130.4 82 130.4 80.7 130.3C79.4 130.2 78.1 130 77.5 130C76.9 129.9 76.9 129.9 76.8 129.4C76.8 128.9 76.7 128 76.5 126.9C76.4 125.8 76.2 124.7 76.1 123.9C76 123.2 76 122.9 75.9 122.6C77.7 122.1 79.4 121 80.7 119.7C81.7 120.2 82.8 120.6 83.9 121ZM38.2 50.1C37.3 47.9 36.3 45.7 35.4 43.4C34.5 41.1 33.6 38.6 33.1 36.5C32.6 34.4 32.3 32.7 32.3 31.2C32.3 29.7 32.5 28.5 33 27.3C33.5 26.1 34.2 25.1 34.5 24.5C34.8 24 34.8 24 35.1 24.1C35.3 24.3 35.8 24.6 36.3 24.8C36.9 25 37.5 25.1 38.2 25.1C35.7 30.6 36.9 36.8 41.1 40.2C39.2 42.2 38 45.1 38 48.4C38.1 49.1 38.2 49.6 38.2 50.1ZM40.1 64.9C40 61.8 39.9 58.6 39.7 55.5C40 56 40.3 56.6 40.7 57C41.7 58.2 42.9 59 44.4 59.4C42.2 60.4 40.8 62.4 40.1 64.9ZM40.5 82.4C39.6 82 38.7 81.7 38 81.3C37.3 81 36.7 80.7 36.4 80.5C36.1 80.3 36.1 80.3 36 81.4C35.9 82.4 35.7 84.5 35.4 86.9C35.1 89.3 34.6 91.9 33.7 95.4C32.8 98.9 31.4 103.3 29.8 106.9C28.2 110.6 26.3 113.6 24.4 116.1C22.5 118.6 20.4 120.7 19.1 122C17.8 123.3 17.1 123.9 16.9 124.5C16.7 125.1 16.8 125.8 17.9 126.5C19 127.1 21 127.7 23.4 128.1C25.8 128.5 28.6 128.8 31.8 128.9C35 129 38.7 129 42.3 128.7C45.9 128.5 49.5 128 52.3 127.7C55.1 127.4 57 127.1 59.1 127.1C61.2 127 63.3 127.1 65.7 127.5C68.1 127.9 70.6 128.7 72 129.1C73.5 129.5 73.8 129.5 74 129.5C74.2 129.5 74.2 129.5 74 128.4C73.8 127.3 73.5 125.2 73.1 123C68.5 123.1 64.1 120.1 61.8 115.4C61.3 115.6 60.7 115.8 60.1 116C53.9 117.5 47.7 113.2 45.6 106.2C41.9 104.7 37.6 99.7 37 94.2C36.7 89.7 38 85.4 40.5 82.4ZM54.9 87.3C62.3 89 70.7 90 79.7 90C93.4 90 105.9 87.7 115.2 83.9C116.3 86.1 116.9 88.7 116.9 91.5C116.9 97.4 114.1 102.5 110 104.9C109.7 105.1 109.4 105.3 109 105.4C108.9 105.8 108.8 106.1 108.7 106.5C107.4 109.8 104.6 112.4 101 113.2C100 113.4 99 113.5 98 113.4C97.6 113.4 97.2 113.3 96.8 113.2C96.6 113.6 96.3 114.1 96 114.5C94.5 116.5 92.4 117.9 89.8 118.5C87 119.1 84.2 118.6 81.9 117.2C81.4 116.9 81 116.6 80.5 116.2C80.2 116.7 79.8 117.1 79.4 117.5C78.2 118.7 76.7 119.6 75 120C70.5 121.1 66 118.6 63.8 113.9C63.4 113.1 63.1 112.2 62.9 111.3C62.4 111.7 61.8 112.1 61.1 112.3C60.7 112.5 60.2 112.6 59.7 112.8C54.8 114 49.8 110.6 48.2 105C48.1 104.5 48 104.1 47.9 103.7C38.4 101.2 37.4 89.2 42.2 82.8C44.4 83.8 46.8 84.7 49.3 85.5C50.4 86.9 51.5 88.3 52.7 89.5C53.9 90.8 55.1 91.9 56.3 93C57.5 94.1 58.8 95.1 59.8 95.8C60.7 96.5 61.3 96.8 61.6 97C61.9 97.2 61.9 97.2 62 97.5C62.1 97.8 62.4 98.3 62.9 99C63.4 99.7 64 100.5 64.7 101C65.4 101.5 66.1 101.7 66.8 101.8C67.5 101.8 68.2 101.7 68.7 101.5C69.2 101.3 69.6 100.9 69.9 100.5C70.2 100.1 70.3 99.6 70.4 99.2C70.5 98.8 70.4 98.3 70.3 97.9C70.2 97.5 69.9 97.1 69.7 96.7C69.4 96.4 69.1 96.1 68.8 96C68.5 95.8 68.2 95.7 68.1 95.7C68 95.7 68 95.7 67.9 95.5C67.9 95.3 67.8 95 67.7 94.6C67.6 94.3 67.3 93.9 67.1 93.7C66.8 93.5 66.6 93.3 66.2 93.2C65.8 93.1 65.3 93.1 64.9 93.2C64.5 93.3 64.2 93.4 63.9 93.5C63.6 93.6 63.4 93.7 63.4 93.8C63.3 93.9 63.3 93.9 63.3 93.9C63.3 93.9 63.2 94 63.1 94C63.1 94 63.1 94 62.3 93.4C61.5 92.8 60 91.6 58.7 90.5C57.2 89.5 56.1 88.4 54.9 87.3ZM51.4 72.4C51.5 72.2 51.5 72 51.8 71.6C52 71.2 52.5 70.5 52.9 70C53.3 69.5 53.7 69 54.1 68.6C54.5 68.2 54.9 67.8 55.1 67.5C55.3 67.1 55.4 66.8 55.4 66.5C55.4 66.2 55.3 65.9 55.2 65.6C55.1 65.4 54.9 65.1 54.6 65C54.3 64.9 54 64.8 53.8 64.8C53.5 64.8 53.3 64.9 52.8 65.2C52.4 65.5 51.7 66 51.2 66.5C50.7 67 50.2 67.6 49.8 68.2C49.4 68.7 49.1 69.2 48.9 69.7C48.6 70.2 48.4 70.7 48.2 71.2C46 70.3 44 69.2 42.3 68.1C42.8 64.3 45.2 60.9 48.1 59.3C44 58.3 40.9 53.9 40.9 48.6C40.9 44.9 42.4 41.6 44.8 39.6C44.5 39.5 44.1 39.3 43.8 39.1C43.5 38.9 43.2 38.7 42.9 38.5C38.9 35.3 38.2 29.2 41.5 24.2C43 21.9 45.1 20.2 47.4 19.3C47.8 19.1 48.3 19 48.7 18.9C48.8 18.5 48.9 18 49 17.6C49.3 16.4 49.8 15.3 50.5 14.2C53.3 9.79999 58.1 7.79999 62.4 8.69999C63 8.79999 63.5 8.99999 64.1 9.29999C64.3 8.79999 64.6 8.29999 64.9 7.79999C66.7 4.79999 69.7 2.89999 73.2 2.89999C75.1 2.89999 76.9 3.49999 78.4 4.49999C78.8 4.79999 79.2 5.09999 79.5 5.39999C79.9 4.99999 80.3 4.69999 80.7 4.39999C82.4 3.19999 84.5 2.49999 86.7 2.49999C90.4 2.49999 93.8 4.49999 95.7 7.49999C95.9 7.79999 96 7.99999 96.2 8.29999C96.6 8.19999 97 8.19999 97.5 8.09999C101.1 7.79999 104.6 8.49999 107.3 10.3C110.5 12.4 111.9 15.5 111.7 18.7C111.7 19.1 111.6 19.4 111.6 19.8C112.1 20.1 112.7 20.4 113.1 20.7C115.8 22.7 117.6 26.3 117.6 30.3C117.6 33 116.8 35.4 115.5 37.4C115.1 38 114.7 38.5 114.2 39C116.6 41 118.2 44.2 118.2 48C118.2 52 116.4 55.5 113.7 57.4C116.2 59.5 117.9 63.1 117.9 67.2C117.9 67.3 117.9 67.4 117.9 67.5C109.7 72.9 95.8 76.5 80.1 76.5C69 76.8 59.2 75.2 51.4 72.4Z" fill="#1A1A18"/>
</g>
<defs>
<clipPath id="clip0">
<rect width="145" height="146" fill="white"/>
</clipPath>
</defs>
</svg>
